HIERARCHY
ROOT Hips
{
	OFFSET -326.860107 92.272324 374.819611
	CHANNELS 6 Xposition Yposition Zposition Zrotation Yrotation Xrotation 
	JOINT LeftUpLeg
	{
		OFFSET 0.103460 1.857825 10.548519
		CHANNELS 3 Zrotation Yrotation Xrotation
		JOINT LeftLeg
		{
			OFFSET 43.500008 -0.000019 0.000016
			CHANNELS 3 Zrotation Yrotation Xrotation
			JOINT LeftFoot
			{
				OFFSET 42.372192 0.000004 0.000011
				CHANNELS 3 Zrotation Yrotation Xrotation
				JOINT LeftToe
				{
					OFFSET 17.300001 0.000001 -0.000016
					CHANNELS 3 Zrotation Yrotation Xrotation
					End Site
					{
						OFFSET 0.000000 0.000000 0.000000
					}
				}
			}
		}
	}
	JOINT RightUpLeg
	{
		OFFSET 0.103460 1.857824 -10.548484
		CHANNELS 3 Zrotation Yrotation Xrotation
		JOINT RightLeg
		{
			OFFSET 43.500046 -0.000008 0.000031
			CHANNELS 3 Zrotation Yrotation Xrotation
			JOINT RightFoot
			{
				OFFSET 42.372261 0.000000 0.000010
				CHANNELS 3 Zrotation Yrotation Xrotation
				JOINT RightToe
				{
					OFFSET 17.299986 -0.000007 0.000010
					CHANNELS 3 Zrotation Yrotation Xrotation
					End Site
					{
						OFFSET 0.000000 0.000000 0.000000
					}
				}
			}
		}
	}
	JOINT Spine
	{
		OFFSET 6.901969 -2.603749 -0.000000
		CHANNELS 3 Zrotation Yrotation Xrotation
		JOINT Spine1
		{
			OFFSET 12.588099 0.000014 -0.000003
			CHANNELS 3 Zrotation Yrotation Xrotation
			JOINT Spine2
			{
				OFFSET 12.343207 0.000019 0.000011
				CHANNELS 3 Zrotation Yrotation Xrotation
				JOINT Neck
				{
					OFFSET 25.832890 -0.000025 -0.000002
					CHANNELS 3 Zrotation Yrotation Xrotation
					JOINT Head
					{
						OFFSET 11.766609 0.000013 -0.000004
						CHANNELS 3 Zrotation Yrotation Xrotation
						End Site
						{
							OFFSET 0.000000 0.000000 0.000000
						}
					}
				}
				JOINT LeftShoulder
				{
					OFFSET 19.745899 -1.480392 6.000105
					CHANNELS 3 Zrotation Yrotation Xrotation
					JOINT LeftArm
					{
						OFFSET 11.284097 -0.000017 -0.000023
						CHANNELS 3 Zrotation Yrotation Xrotation
						JOINT LeftForeArm
						{
							OFFSET 33.000065 -0.000020 0.000044
							CHANNELS 3 Zrotation Yrotation Xrotation
							JOINT LeftHand
							{
								OFFSET 25.200005 0.000023 0.000007
								CHANNELS 3 Zrotation Yrotation Xrotation
								End Site
								{
									OFFSET 0.000000 0.000000 0.000000
								}
							}
						}
					}
				}
				JOINT RightShoulder
				{
					OFFSET 19.746096 -1.480391 -6.000090
					CHANNELS 3 Zrotation Yrotation Xrotation
					JOINT RightArm
					{
						OFFSET 11.284126 -0.000026 -0.000012
						CHANNELS 3 Zrotation Yrotation Xrotation
						JOINT RightForeArm
						{
							OFFSET 33.000092 0.000010 0.000014
							CHANNELS 3 Zrotation Yrotation Xrotation
							JOINT RightHand
							{
								OFFSET 25.199760 0.000151 0.000418
								CHANNELS 3 Zrotation Yrotation Xrotation
								End Site
								{
									OFFSET 0.000000 0.000000 0.000000
								}
							}
						}
					}
				}
			}
		}
	}
}
MOTION
Frames: 8
Frame Time: 0.033333
-11.869380 88.514473 449.739594 111.067912 -3.744288 -1.088715 132.821730 -2.108002 -169.284900 -50.571414 3.297156 -2.489765 88.719643 0.527446 -6.356454 21.454550 0.003092 -0.000000 137.065026 -7.362199 -179.470310 -44.929725 -4.770786 -1.889238 92.306291 1.923213 3.999141 21.454558 -0.003109 -0.000018 9.612676 0.153500 -1.311327 9.207908 0.410760 -2.606251 8.890157 0.395156 -2.608675 6.188583 3.369416 -0.866329 -26.477934 -6.168373 2.500463 -175.337445 -83.662065 -6.294649 -5.534442 54.515599 26.147050 -68.046388 -20.078680 2.767842 -8.471835 -10.933842 37.975814 178.039058 77.230971 -0.562985 13.169289 -59.055346 -31.467750 -59.014262 9.787349 -1.740983 -8.624350 24.191263 -1.787217 
-16.382530 83.589104 450.475098 108.327306 -2.595490 -2.367493 133.977808 -1.987000 -173.876590 -62.269209 3.754847 -2.163781 100.824199 1.011458 -4.928527 21.454553 0.003092 -0.000000 137.916518 -8.024904 -179.298244 -56.498369 -6.129100 -0.080454 104.715208 0.223034 1.448846 21.454557 -0.003107 -0.000017 9.582641 -0.124084 -1.098096 9.154029 -0.161000 -2.202525 8.836180 -0.174159 -2.201506 5.477498 3.946862 -1.480778 -26.606254 -6.714850 2.240774 -175.479417 -82.828734 -6.141494 -8.041641 55.554573 26.962407 -64.525863 -20.161048 2.629832 -7.257593 -11.241147 34.438623 176.677009 75.585715 -1.992921 12.214494 -57.793550 -30.739092 -51.096102 11.030392 -1.551209 -6.674024 27.861761 3.884827 
-20.516760 80.272148 450.994812 106.159404 -2.216211 -2.960388 134.915128 -1.890106 -176.600593 -71.214373 3.514394 -3.356759 105.232212 2.009115 -3.264560 21.454551 0.003092 0.000000 139.624680 -8.836808 -178.746501 -64.510105 -7.994835 1.421474 111.149410 -0.782235 1.530979 21.454557 -0.003108 -0.000017 9.559296 -0.295165 -1.155816 9.110896 -0.498495 -2.331257 8.793069 -0.512425 -2.328201 0.534414 4.495747 -1.279698 -25.104615 -6.012134 2.349542 -151.913133 -86.204036 -29.890171 -4.147683 59.494376 27.909992 -70.612319 -15.525203 2.553620 -11.801056 -9.169441 37.971460 179.607911 78.107414 1.055914 12.297241 -60.004018 -28.169905 -47.760941 10.055901 -1.380725 -6.038730 25.811078 2.843844 
-25.291880 79.127190 451.474091 106.929309 -2.738845 -3.801911 136.289362 -3.303894 -179.416884 -74.440271 3.387509 -4.014875 107.143408 2.496793 -1.519781 21.454551 0.003092 0.000000 141.648670 -9.331895 -178.490260 -66.446232 -7.708403 2.449169 113.714897 -1.443002 0.666693 21.454558 -0.003108 -0.000017 8.808220 -0.111029 -1.194981 7.605125 -0.143487 -2.394634 7.287322 -0.157804 -2.393720 -4.073999 4.878740 -0.696245 -23.639792 -5.022325 2.730612 -135.920423 -86.331098 -45.965585 5.988574 58.711213 33.649026 -79.908692 -10.299449 2.582803 -12.545203 -7.045330 40.002307 179.757069 77.785678 1.200913 14.249248 -57.229906 -24.303369 -49.702754 8.715029 -1.351229 -9.651005 23.692045 -4.488613 
-31.214600 80.738098 452.451813 106.043789 -1.260086 -5.404205 143.701293 -3.966400 174.451952 -69.879973 3.705852 -2.631421 104.786297 1.630428 0.889376 21.454541 0.003092 0.000000 148.537872 -6.875198 -178.399897 -62.076680 -7.562336 2.017858 111.729300 -1.130428 -0.493024 21.454558 -0.003108 -0.000017 8.116024 -0.413491 -1.011689 6.226228 -0.772223 -2.044099 5.908315 -0.784413 -2.039398 -4.577147 5.739243 -0.585788 -22.415771 -5.001976 3.018953 -124.969745 -87.131876 -56.916178 18.040886 55.136296 38.360087 -91.422635 -3.521331 2.614511 -12.428189 -3.991497 45.941208 -173.382084 79.346724 8.210937 21.336599 -54.387785 -29.244981 -59.791640 8.189068 -1.660717 -13.983969 22.386003 -10.043506 
-38.640541 84.425453 453.756989 104.750998 -0.169710 -8.252289 153.532011 -4.395003 168.112566 -61.248437 3.073066 -0.675110 94.915744 0.836778 4.129237 21.454545 0.003092 0.000000 156.602263 -3.562499 -176.492197 -54.825590 -7.812212 -0.607280 100.798211 0.423800 -2.321254 21.454555 -0.003109 -0.000018 7.119895 -0.566462 -0.540001 4.232488 -1.113046 -1.100196 3.914385 -1.119532 -1.093450 -1.348097 4.027183 0.001288 -18.598578 -4.713532 2.734530 -102.599618 -86.110879 -79.438508 27.039027 50.594384 44.698909 -101.458403 -0.859032 2.874478 -10.213682 -3.109526 44.306259 -173.330079 82.161753 8.287103 30.871318 -49.489403 -37.957509 -73.593922 5.608660 -2.026162 -15.547496 19.619421 -10.776684 
-47.438862 88.980293 454.940094 101.612991 -0.141834 -10.852111 164.800990 -4.351806 161.953976 -51.669100 2.598652 2.239497 76.050953 0.194081 6.312942 21.454550 0.003092 0.000001 166.035970 -0.342300 -174.171682 -46.684705 -7.301431 -4.048921 80.726819 2.114791 -3.446882 21.454567 -0.003108 -0.000016 6.441773 -0.353148 -0.143087 2.871660 -0.702758 -0.294727 2.553538 -0.704386 -0.290476 4.064392 1.327882 1.079303 -14.224132 -4.463861 2.859218 -92.612338 -84.575808 -89.600641 33.947970 45.681859 48.686026 -109.210606 0.427754 3.124774 -10.006838 -3.616724 39.295642 -164.989954 85.610056 16.716109 35.584606 -44.786452 -43.710666 -86.942093 2.750392 -2.403256 -16.226212 15.923118 -13.305359 
-56.048481 93.753792 456.238495 98.417739 0.203660 -13.272004 172.185545 -1.461396 157.917525 -45.220818 5.464308 3.296082 55.224193 -3.480313 -1.862489 21.454551 0.003092 -0.000000 171.379528 2.242204 -172.303707 -43.648754 -8.930396 -4.907206 60.889934 5.312617 3.493412 21.454558 -0.003108 -0.000018 6.124126 -0.151642 0.166202 2.234983 -0.306429 0.329528 1.916892 -0.304297 0.331373 9.961659 -1.213900 2.065225 -13.547178 -4.289715 3.412562 -97.338167 -84.224941 -84.883118 39.195587 40.537740 47.958989 -115.321406 1.448064 3.314742 -10.264432 -5.190244 38.455471 -174.084050 86.701288 7.565863 36.207649 -39.254412 -45.549142 -99.309742 1.762835 -2.886847 -15.441533 14.175474 -13.466485 
